<?xml version="1.0" standalone="no"?>
<!DOCTYPE svg PUBLIC "-//W3C//DTD SVG 20010904//EN"
 "http://www.w3.org/TR/2001/REC-SVG-20010904/DTD/svg10.dtd">
<svg version="1.0" xmlns="http://www.w3.org/2000/svg"
 width="400.000000pt" height="400.000000pt" viewBox="0 0 400.000000 400.000000"
 preserveAspectRatio="xMidYMid meet">
<metadata>
Created by potrace 1.14, written by Peter Selinger 2001-2017
</metadata>
<g transform="translate(0.000000,400.000000) scale(0.100000,-0.100000)"
fill="#000000" stroke="none">
<path d="M0 2000 l0 -2000 2000 0 2000 0 0 2000 0 2000 -2000 0 -2000 0 0
-2000z m859 1533 c64 -182 119 -334 122 -337 3 -3 28 72 55 167 l49 172 3
-190 3 -190 -142 -477 -143 -478 -32 0 -32 0 -120 358 c-313 930 -372 1103
-387 1125 -9 15 -40 33 -76 47 -44 16 -63 28 -70 46 -13 36 -12 42 16 70 l24
24 307 -2 307 -3 116 -332z m976 312 c28 -27 29 -33 16 -68 -6 -16 -25 -31
-55 -42 -38 -15 -48 -24 -57 -54 -16 -55 -8 -1303 8 -1323 7 -8 30 -20 52 -26
65 -20 78 -91 21 -122 -25 -13 -699 -14 -734 0 -35 13 -53 52 -38 84 7 16 27
29 64 41 29 10 59 24 66 33 9 12 12 180 12 759 l0 743 310 0 311 0 24 -25z
m745 -335 c28 -28 26 -36 -20 -81 -22 -22 -40 -45 -40 -51 0 -6 54 -134 120
-285 l120 -275 0 -234 c0 -221 1 -235 20 -254 11 -11 28 -20 38 -20 29 0 62
-29 62 -55 0 -52 -19 -55 -335 -55 -247 0 -294 2 -313 16 -46 32 -20 82 51 98
17 4 31 16 37 32 6 14 10 102 10 196 l0 171 -124 296 c-168 400 -162 387 -201
418 -39 31 -47 75 -17 92 10 6 125 11 295 11 264 0 278 -1 297 -20z m550 0
c35 -35 26 -57 -37 -88 -64 -33 -94 -79 -194 -298 -51 -112 -96 -204 -99 -204
-7 0 -50 99 -50 114 0 5 25 64 55 131 75 168 74 215 -8 256 -63 32 -72 54 -37
89 18 18 33 20 185 20 152 0 167 -2 185 -20z m-2791 -409 l61 -174 0 -224 c0
-218 1 -225 25 -272 18 -36 42 -61 87 -93 57 -39 63 -47 63 -78 0 -54 -21 -60
-240 -60 -204 0 -226 5 -238 51 -6 22 9 40 86 102 19 15 45 48 58 75 24 47 24
50 27 451 2 222 5 402 6 400 2 -2 31 -82 65 -178z m1651 -1325 c0 -74 0 -74
-30 -81 -37 -8 -86 -63 -99 -112 -7 -25 -11 -243 -11 -614 0 -633 -1 -621 60
-673 18 -14 42 -26 56 -26 23 0 24 -2 24 -76 l0 -77 -77 6 c-232 18 -435 153
-538 357 -75 148 -111 339 -102 535 11 229 66 396 180 552 113 152 335 279
495 282 l42 1 0 -74z m281 23 c63 -21 125 -39 137 -39 11 0 29 12 39 26 46 67
86 82 125 47 17 -15 18 -38 18 -320 0 -290 -1 -304 -20 -323 -25 -25 -64 -26
-89 -1 -11 11 -31 59 -46 108 -63 206 -179 357 -302 394 l-43 12 0 74 0 75 33
-7 c17 -4 84 -24 148 -46z m999 -341 c0 -49 -3 -55 -35 -75 -24 -16 -37 -34
-45 -63 -7 -27 -10 -197 -8 -523 3 -525 3 -524 60 -553 25 -13 28 -20 28 -66
l0 -51 -56 7 c-171 20 -341 150 -421 323 -87 189 -96 453 -21 659 74 206 246
356 440 384 29 4 54 8 56 9 1 0 2 -23 2 -51z m206 28 c175 -46 324 -195 388
-386 70 -209 52 -500 -40 -670 -88 -163 -255 -280 -421 -297 l-53 -6 0 49 c1
44 4 51 33 69 63 40 62 30 62 575 0 548 1 543 -65 570 -28 11 -30 16 -30 61
l0 49 38 0 c20 0 60 -6 88 -14z m-899 -882 c22 -22 25 -31 19 -71 -9 -65 -62
-158 -134 -235 -99 -105 -200 -161 -317 -174 l-56 -7 3 73 3 73 52 13 c153 39
266 142 312 286 22 68 74 86 118 42z"/>
</g>
</svg>
